<svg id="Layer_1" data-name="Layer 1" xmlns="http://www.w3.org/2000/svg" xmlns:xlink="http://www.w3.org/1999/xlink" viewBox="0 0 1133.46 142.62"><defs><style>.cls-1,.cls-15,.cls-19,.cls-36,.cls-43{fill:none;}.cls-14,.cls-2{fill:#fff;}.cls-3{fill:#e9d5b0;}.cls-14,.cls-18,.cls-20,.cls-3,.cls-42{fill-rule:evenodd;}.cls-4{clip-path:url(#clip-path);}.cls-5{fill:url(#linear-gradient);}.cls-6{clip-path:url(#clip-path-2);}.cls-7{fill:url(#linear-gradient-2);}.cls-8{clip-path:url(#clip-path-3);}.cls-9{fill:url(#linear-gradient-3);}.cls-10{clip-path:url(#clip-path-4);}.cls-11{clip-path:url(#clip-path-5);}.cls-12{clip-path:url(#clip-path-6);}.cls-13{fill:url(#radial-gradient);}.cls-15{stroke:#fff;}.cls-15,.cls-19,.cls-36,.cls-43{stroke-miterlimit:2.61;stroke-width:0;}.cls-16{clip-path:url(#clip-path-7);}.cls-17{fill:url(#radial-gradient-2);}.cls-18{fill:#c9a42e;}.cls-19{stroke:#c9a42e;}.cls-20,.cls-35{fill:#f9c911;}.cls-21{clip-path:url(#clip-path-8);}.cls-22{clip-path:url(#clip-path-9);}.cls-23{fill:url(#linear-gradient-4);}.cls-24{clip-path:url(#clip-path-10);}.cls-25{clip-path:url(#clip-path-11);}.cls-26{fill:url(#linear-gradient-5);}.cls-27{clip-path:url(#clip-path-12);}.cls-28{clip-path:url(#clip-path-13);}.cls-29{fill:url(#linear-gradient-6);}.cls-30{clip-path:url(#clip-path-14);}.cls-31{clip-path:url(#clip-path-15);}.cls-32{fill:url(#linear-gradient-7);}.cls-33{clip-path:url(#clip-path-16);}.cls-34{fill:url(#linear-gradient-8);}.cls-36{stroke:#f9c911;}.cls-37{clip-path:url(#clip-path-18);}.cls-38{clip-path:url(#clip-path-19);}.cls-39{clip-path:url(#clip-path-20);}.cls-40{clip-path:url(#clip-path-21);}.cls-41{clip-path:url(#clip-path-22);}.cls-42{fill:#aa9176;}.cls-43{stroke:#aa9176;}.cls-44{fill:url(#linear-gradient-9);}.cls-45{fill:url(#linear-gradient-10);}.cls-46{fill:#6d4d32;}.cls-47{fill:#405864;}</style><clipPath id="clip-path"><path class="cls-1" d="M573.16,5.05l-1.08-.21c-1.83-.37-3.72-.74-5.52-1a.34.34,0,0,0-.29.08.33.33,0,0,0-.13.26l0,1.43v.86c-1.49-.21-2.9-.36-4.39-.51l-1.19-.13V3.38A.36.36,0,0,0,560.2,3c-2.13-.21-4.31-.38-6.48-.52a.34.34,0,0,0-.27.1.36.36,0,0,0-.11.26V5.26c-1.88-.08-3.81-.14-5.75-.18V2.65a.36.36,0,0,0-.36-.35h-2.68c-1.25,0-2.53,0-3.79,0a.35.35,0,0,0-.35.35V5.1c-1.88.05-3.81.11-5.75.2V2.9a.35.35,0,0,0-.11-.26.38.38,0,0,0-.27-.1c-2.12.14-4.3.31-6.48.53a.35.35,0,0,0-.32.35V5.84c-2,.21-3.63.42-5.47.67V4.07a.37.37,0,0,0-.13-.27.34.34,0,0,0-.29-.08c-1.38.22-2.87.53-4.31.84l-2.44.49a.35.35,0,0,0-.29.35V8a.33.33,0,0,0,0,.17c.35.68.7,1.36,1.06,2a.36.36,0,0,0,.28.19.44.44,0,0,0,.16,0,175.67,175.67,0,0,1,27.06-2.27c9.15,0,18.12,1.08,28.78,2.75H572a.32.32,0,0,0,.23-.08.35.35,0,0,0,.13-.27v-.32l.86-1.63.2-.38a.33.33,0,0,0,0-.17V5.4A.35.35,0,0,0,573.16,5.05Z"/></clipPath><linearGradient id="linear-gradient" x1="512.68" y1="6.21" x2="576.34" y2="6.21" gradientUnits="userSpaceOnUse"><stop offset="0" stop-color="#d7b46d"/><stop offset="0.51" stop-color="#ecd8b0"/><stop offset="0.52" stop-color="#ecd7af"/><stop offset="1" stop-color="#d7b46b"/></linearGradient><clipPath id="clip-path-2"><path class="cls-1" d="M515.74,10.8A182.09,182.09,0,0,1,545,8.34a144.17,144.17,0,0,1,27.28,2.46l-.5.83L570,13.28a196.7,196.7,0,0,0-26.27-2.19,178,178,0,0,0-25.47,2.19Z"/></clipPath><linearGradient id="linear-gradient-2" x1="515.44" y1="10.67" x2="572.68" y2="10.67" gradientUnits="userSpaceOnUse"><stop offset="0" stop-color="#b69544"/><stop offset="0.51" stop-color="#c6a765"/><stop offset="1" stop-color="#b79542"/></linearGradient><clipPath id="clip-path-3"><path class="cls-1" d="M514.59,27.13s14.66-1.72,30.43-2.06A147.25,147.25,0,0,1,574,27.24c0,.08-6.17-14.18-6.17-14.18s-10.41-1.32-22.89-1.64a141.71,141.71,0,0,0-24.44,1.75Z"/></clipPath><linearGradient id="linear-gradient-3" x1="514.26" y1="19.31" x2="574.5" y2="19.31" gradientUnits="userSpaceOnUse"><stop offset="0" stop-color="#dab772"/><stop offset="0.51" stop-color="#dfc18a"/><stop offset="1" stop-color="#dab772"/></linearGradient><clipPath id="clip-path-4"><path class="cls-1" d="M545.16,25a228.32,228.32,0,0,0-37.84,3.27L492.86,46.64c22,14-.22,29.48-.22,50.52s44,29.27,51.38,43.3c7.34-14,51.39-22.27,51.39-43.3s-22.25-36.5-.23-50.52L580.73,28.26A190.59,190.59,0,0,0,545.17,25Z"/></clipPath><clipPath id="clip-path-5"><path class="cls-1" d="M509.73,32.26,498.9,45.8c4.12,3.42,7.18,7.72,7.81,13.32.75,6.65-2.19,13.33-4.7,19.36s-5,12.13-5,18.68a10.48,10.48,0,0,0,.48,3.13c2.47,8,15,14.59,21.92,18.29,5.52,2.92,11.21,5.68,16.54,8.93a47,47,0,0,1,8.21,5.84,44.47,44.47,0,0,1,7.88-5.84c5.33-3.25,11-6,16.53-8.93,7.45-4,22.4-11.63,22.4-21.42,0-6.55-2.49-12.71-5-18.68s-5.38-12.7-4.63-19.35c.63-5.6,3.7-9.76,7.82-13.18L578.29,32.22a185.61,185.61,0,0,0-33.13-2.9,222.08,222.08,0,0,0-35.43,2.94"/></clipPath><clipPath id="clip-path-6"><rect class="cls-1" x="494.77" y="27.15" width="99.49" height="108.62"/></clipPath><radialGradient id="radial-gradient" cx="534.27" cy="82.55" r="52.81" gradientTransform="translate(2.85) scale(1.01 1)" gradientUnits="userSpaceOnUse"><stop offset="0" stop-color="#00a468"/><stop offset="0.39" stop-color="#009b5f"/><stop offset="1" stop-color="#008547"/></radialGradient><clipPath id="clip-path-7"><path class="cls-1" d="M515.62,76.93h56.77c.47-18.14-9-36.75-28.38-36.75s-28.86,18.61-28.39,36.75"/></clipPath><radialGradient id="radial-gradient-2" cx="524.36" cy="71.37" r="38.11" gradientTransform="translate(2.85) scale(1.01 1)" gradientUnits="userSpaceOnUse"><stop offset="0" stop-color="#dfefdf"/><stop offset="0.14" stop-color="#d6ece0"/><stop offset="0.37" stop-color="#bde4e2"/><stop offset="0.65" stop-color="#95d6e6"/><stop offset="0.99" stop-color="#5dc4ec"/><stop offset="1" stop-color="#5bc3ec"/></radialGradient><clipPath id="clip-path-8"><path class="cls-1" d="M515.6,75.73c0,1.35.07,2.7.18,4,6.57.21,15.05-.18,15.25,1.07,0,.17.38.08.68,0s.58-.17.42,0c-3,3.34.72,9.09,4.52,12,11.84,9.17,7.51,14.33-2.07,16.4A26.38,26.38,0,0,0,544,111c10.92,0,18.68-5.85,23.3-14.19-7.09-2.81-19.08-4.28-21.86-10.57-.92-2.07,4.74-6,5.62-7.68,1.71-3.28-9.39-2.58-9.09-2.81l-26.18-.14c.08,0,0,.07-.2.17"/></clipPath><clipPath id="clip-path-9"><rect class="cls-1" x="512.98" y="73.84" width="56.85" height="39.42"/></clipPath><linearGradient id="linear-gradient-4" x1="513.38" y1="97.13" x2="568.89" y2="97.13" gradientUnits="userSpaceOnUse"><stop offset="0" stop-color="#fff"/><stop offset="0.18" stop-color="#fffbf6"/><stop offset="0.48" stop-color="#fdeedd"/><stop offset="0.85" stop-color="#fbdbb5"/><stop offset="1" stop-color="#fad2a3"/></linearGradient><clipPath id="clip-path-10"><path class="cls-1" d="M515.6,75.38c-1.47,7.78,1.91,19.85,9,27.38,5.79,6.18,14,8.85,17.35,8.36.67-.1,1.25.21,1.46-.19,7.28-13.72-19.28-29.08-.41-35.18,3.46-1.13-19.32-.18-27.37-.18"/></clipPath><clipPath id="clip-path-11"><rect class="cls-1" x="512.92" y="73.92" width="39.37" height="39.42"/></clipPath><linearGradient id="linear-gradient-5" x1="514.67" y1="93.07" x2="552.02" y2="93.07" gradientUnits="userSpaceOnUse"><stop offset="0" stop-color="#00adb3"/><stop offset="0.18" stop-color="#09afb5"/><stop offset="0.47" stop-color="#22b4b9"/><stop offset="0.84" stop-color="#4abdc1"/><stop offset="1" stop-color="#5ec1c5"/></linearGradient><clipPath id="clip-path-12"><path class="cls-1" d="M569,59.16c-6.71.07-5.89,8-10.52,8.54-1.1.11-4-1-5.93-1.25-2.6-.42-7.71,5.82-8.82,9.09h28.71a46.51,46.51,0,0,0-2.92-16.34,4,4,0,0,0-.49,0Z"/></clipPath><clipPath id="clip-path-13"><path class="cls-1" d="M569,59.16c-6.71.07-6.09,7.91-10.73,8.4-1.1.11-3.82-.81-5.72-1.11-2.6-.42-7.71,5.82-8.82,9.09h28.71a46.51,46.51,0,0,0-2.92-16.34,4,4,0,0,0-.49,0Z"/></clipPath><linearGradient id="linear-gradient-6" x1="558.24" y1="58.08" x2="558.24" y2="75.43" gradientUnits="userSpaceOnUse"><stop offset="0" stop-color="#15a476"/><stop offset="0.32" stop-color="#109c6d"/><stop offset="0.85" stop-color="#048654"/><stop offset="1" stop-color="#007f4c"/></linearGradient><clipPath id="clip-path-14"><path class="cls-1" d="M545.7,91.36c4.66,4.86,13.21,5.51,19.48,8.75,4.78-6.57,7.18-15.38,7.23-24.21l-28.57-.34c-2.61,4.06-4,9.66,1.86,15.8"/></clipPath><clipPath id="clip-path-15"><rect class="cls-1" x="537.48" y="74.62" width="39.08" height="28.03"/></clipPath><linearGradient id="linear-gradient-7" x1="539.18" y1="89.6" x2="573.02" y2="89.6" gradientUnits="userSpaceOnUse"><stop offset="0" stop-color="#e8b589"/><stop offset="0.31" stop-color="#e3ae80"/><stop offset="0.82" stop-color="#d49967"/><stop offset="1" stop-color="#ce915d"/></linearGradient><clipPath id="clip-path-16"><path class="cls-1" d="M557.28,75H572.4a49.81,49.81,0,0,0-.48-6.23c-1.46-.19-3.7-.73-5.27-.92l-.3,0c-2.58,0-4.16,4.13-9.07,7.17"/></clipPath><linearGradient id="linear-gradient-8" x1="566.31" y1="67.81" x2="566.31" y2="75.59" xlink:href="#linear-gradient-6"/><clipPath id="clip-path-18"><path class="cls-1" d="M530.83,53.68a.59.59,0,0,0,.59.58.58.58,0,1,0,0-1.16.59.59,0,0,0-.59.58"/></clipPath><clipPath id="clip-path-19"><polygon class="cls-1" points="530.25 59.88 529.77 67.86 533.19 67.86 532.69 59.88 530.25 59.88"/></clipPath><clipPath id="clip-path-20"><rect class="cls-1" x="529.36" y="58.41" width="4.18" height="1.37"/></clipPath><clipPath id="clip-path-21"><polygon class="cls-1" points="534.36 62.75 534.36 63.88 533.21 63.88 533.21 62.75 532.05 62.75 532.05 63.88 530.9 63.88 530.9 62.75 529.74 62.75 529.74 63.88 528.58 63.88 528.58 62.75 527.43 62.75 527.43 74.76 535.51 74.76 535.51 63.88 535.51 62.75 534.36 62.75"/></clipPath><clipPath id="clip-path-22"><path class="cls-1" d="M529.5,55.86v.19h3.89v-.19c0-.79-.88-1.44-1.94-1.44s-2,.64-2,1.44"/></clipPath><linearGradient id="linear-gradient-9" x1="527.39" y1="68.73" x2="535.8" y2="68.73" gradientUnits="userSpaceOnUse"><stop offset="0" stop-color="#dad9d8"/><stop offset="0.34" stop-color="#e1e1e1"/><stop offset="0.9" stop-color="#f5f7fa"/><stop offset="1" stop-color="#f9fcff"/></linearGradient><linearGradient id="linear-gradient-10" x1="529.54" y1="57.59" x2="533.83" y2="57.59" xlink:href="#linear-gradient-9"/></defs><path class="cls-2" d="M616.87,48.64V48l4.32-5.35h.66a13.28,13.28,0,0,0,8,3.47c2.26,0,3.71-.71,3.71-1.88,0-1.64-2.06-1.78-5.11-2.63-4.7-1.31-10.24-3.94-10.24-10,0-5.58,5-9.43,12.25-9.43,5.17,0,9.86,2,12.16,4.55v.66l-4.37,5.16h-.65a10.84,10.84,0,0,0-7-3.1c-1.78,0-3,.66-3,1.74,0,1.5,2.12,2.21,4.18,2.82,5.26,1.5,11.22,3.28,11.22,10.18,0,6.34-5.91,9.62-12.72,9.62C624.62,53.85,619.64,51.69,616.87,48.64Z"/><path class="cls-2" d="M658.92,30.29v4.22h10.61v7.05H658.92v4.22H673v7.51H649.63V22.78h23.23v7.51Z"/><path class="cls-2" d="M677.51,38c0-9.06,7.32-15.82,17-15.82a16.62,16.62,0,0,1,12.86,5.87v.65l-5.63,4.79h-.66a9.11,9.11,0,0,0-6.62-3,7.47,7.47,0,0,0,0,14.93,9.11,9.11,0,0,0,6.62-3h.66l5.63,4.79V48a16.6,16.6,0,0,1-13,5.86C684.88,53.85,677.51,47.09,677.51,38Z"/><path class="cls-2" d="M739.93,52.59l-.42.7h-9.25l-5.77-10.7h-2.21v10.7H713V22.78h14c8,0,12.34,3.94,12.34,10.19,0,4-2.25,6.75-5.58,8.3Zm-17.65-16.1h4.32a3,3,0,0,0,3.24-3,3.07,3.07,0,0,0-3.24-3.19h-4.32Z"/><path class="cls-2" d="M755.42,30.29v4.22H766v7.05h-10.6v4.22H769.5v7.51H746.12V22.78h23.24v7.51Z"/><path class="cls-2" d="M792.45,53.29h-9.3v-23h-9.29V22.78h27.88v7.51h-9.29Z"/><path class="cls-2" d="M834.31,52.59l-.42.7h-9.48l-1.78-4.6H811.69l-1.88,4.6h-9.06l-.42-.7,14-29.81h5.91Zm-14-10-3-7.79-3.19,7.79Z"/><path class="cls-2" d="M645.74,95.76l-.42.71h-9.25l-5.77-10.7h-2.21v10.7H618.8V66h14c8,0,12.35,3.94,12.35,10.18,0,4-2.26,6.76-5.59,8.31Zm-17.65-16.1h4.32a2.94,2.94,0,0,0,3.24-3,3.07,3.07,0,0,0-3.24-3.19h-4.32Z"/><path class="cls-2" d="M661.22,73.47v4.22h10.61v7H661.22V89h14.09v7.51H651.93V66h23.23v7.51Z"/><path class="cls-2" d="M679.81,81.21c0-9.06,7.32-15.81,17-15.81a16.65,16.65,0,0,1,12.86,5.86v.66L704,76.71h-.66a9.11,9.11,0,0,0-6.62-3,7.47,7.47,0,0,0,0,14.93,9.11,9.11,0,0,0,6.62-3H704l5.63,4.79v.65a16.57,16.57,0,0,1-13,5.87C687.18,97,679.81,90.27,679.81,81.21Z"/><path class="cls-2" d="M724.11,66V82.67c0,3.66,2.26,6.1,5.59,6.1s5.58-2.44,5.58-6.1V66h9.16V82.11c0,9-5.92,14.92-14.74,14.92s-14.88-6-14.88-14.92V66Z"/><path class="cls-2" d="M778.89,95.76l-.43.71h-9.24l-5.78-10.7h-2.2v10.7h-9.3V66h14c8,0,12.35,3.94,12.35,10.18,0,4-2.26,6.76-5.59,8.31Zm-17.65-16.1h4.32a2.94,2.94,0,0,0,3.23-3,3.06,3.06,0,0,0-3.23-3.19h-4.32Z"/><path class="cls-2" d="M783.15,91.82v-.66l4.32-5.35h.66a13.23,13.23,0,0,0,8,3.48c2.25,0,3.7-.71,3.7-1.88,0-1.64-2.06-1.78-5.11-2.63-4.7-1.31-10.23-3.94-10.23-10,0-5.58,5-9.43,12.25-9.43,5.16,0,9.85,2,12.15,4.55v.66l-4.36,5.16h-.66a10.82,10.82,0,0,0-6.95-3.1c-1.78,0-3,.66-3,1.74,0,1.5,2.11,2.2,4.17,2.81,5.26,1.51,11.22,3.29,11.22,10.19,0,6.34-5.91,9.62-12.72,9.62C790.9,97,785.92,94.87,783.15,91.82Z"/><path class="cls-2" d="M631.1,115.48a5.84,5.84,0,0,1-6.09,5.87,6,6,0,1,1,0-12,6.16,6.16,0,0,1,4.88,2.23v.2l-1.73,1.46H628a3.81,3.81,0,0,0-3-1.37,3.5,3.5,0,0,0,.06,7,3.17,3.17,0,0,0,3.23-2.34H625v-2h5.82l.19.18A6.29,6.29,0,0,1,631.1,115.48Z"/><path class="cls-2" d="M632.82,115.34a6.36,6.36,0,1,1,6.35,6A6,6,0,0,1,632.82,115.34Zm9.87,0a3.52,3.52,0,1,0-3.52,3.5A3.41,3.41,0,0,0,642.69,115.34Z"/><path class="cls-2" d="M659.24,109.72l-5,11.42H652l-3.62-8.28c-.28-.66-.46-.91-.69-1a.8.8,0,0,0-.58.05l-.17-.08-.49-1.89.08-.2a2.39,2.39,0,0,1,1.49-.43,2.76,2.76,0,0,1,2.73,2.07l2.43,5.94,3.23-7.79h2.76Z"/><path class="cls-2" d="M664.18,111.83v2.41h4.33v2.17h-4.33v2.45h5.65v2.28H661.4V109.55h8.43v2.28Z"/><path class="cls-2" d="M682.8,120.73l-.09.2a2.83,2.83,0,0,1-1.57.42c-1.7,0-2.37-1-3.12-2.46-.38-.73-1-2.1-1.75-2.1h-.91v4.35h-2.78V109.55h5c2.94,0,4.49,1.4,4.49,3.69a3.29,3.29,0,0,1-2.41,3.24,3.79,3.79,0,0,1,.68,1c.34.73.66,1.39,1.27,1.39a1.19,1.19,0,0,0,.46-.12l.18.09Zm-5.16-5.85a1.48,1.48,0,0,0,1.64-1.5,1.51,1.51,0,0,0-1.64-1.55h-2.28v3Z"/><path class="cls-2" d="M695.57,109.55v11.59h-2L688,114.22v6.92h-2.79V109.55h2l5.57,6.93v-6.93Z"/><path class="cls-2" d="M698.19,115.34a6.36,6.36,0,1,1,6.35,6A6,6,0,0,1,698.19,115.34Zm9.86,0a3.52,3.52,0,1,0-3.51,3.5A3.41,3.41,0,0,0,708.05,115.34Z"/><path class="cls-2" d="M729.33,115.32c0,3.5-2.37,5.82-6.1,5.82h-5.09V109.55h5.09C727,109.55,729.33,111.86,729.33,115.32Zm-2.85,0a3.21,3.21,0,0,0-3.36-3.51h-2.19v7h2.19A3.22,3.22,0,0,0,726.48,115.34Z"/><path class="cls-2" d="M731.27,115.34a6.36,6.36,0,1,1,6.35,6A6,6,0,0,1,731.27,115.34Zm9.87,0a3.52,3.52,0,1,0-3.52,3.5A3.42,3.42,0,0,0,741.14,115.34Z"/><path class="cls-2" d="M754,111.83v2.41h4.33v2.17H754v2.45h5.65v2.28h-8.43V109.55h8.43v2.28Z"/><path class="cls-2" d="M761.62,119.36v-.25l1.29-1.54h.19a4.4,4.4,0,0,0,3.09,1.43c1,0,1.7-.47,1.7-1.14,0-.84-1.08-1.11-2.36-1.56-1.57-.53-3.5-1.3-3.5-3.53s2-3.44,4.34-3.44a5.23,5.23,0,0,1,4.12,1.73v.27l-1.28,1.44H769a3.46,3.46,0,0,0-2.55-1.19c-.87,0-1.51.37-1.51,1s.82,1.06,1.73,1.39c1.89.66,4.1,1.38,4.1,3.84s-2,3.51-4.48,3.51A5.84,5.84,0,0,1,761.62,119.36Z"/><path class="cls-2" d="M778.5,111.83v9.31h-2.79v-9.31h-3.6v-2.28h10v2.28Z"/><path class="cls-2" d="M794.73,120.78l-.11.2a3,3,0,0,1-1.52.37,2.45,2.45,0,0,1-1.55-.48,4.77,4.77,0,0,1-1.21-1.76h-4.83l-.81,2h-2.92l5-11.59h2.4l3.71,8.31c.36.8.59,1,.91,1a.9.9,0,0,0,.4-.12l.16.09Zm-8.46-3.6h3.3L787.93,113Z"/><path class="cls-2" d="M808,115.32c0,3.5-2.37,5.82-6.1,5.82h-5.08V109.55h5.08C805.59,109.55,808,111.86,808,115.32Zm-2.85,0a3.21,3.21,0,0,0-3.36-3.51h-2.19v7h2.19A3.22,3.22,0,0,0,805.11,115.34Z"/><path class="cls-2" d="M809.9,115.34a6.36,6.36,0,1,1,6.35,6A6,6,0,0,1,809.9,115.34Zm9.87,0a3.52,3.52,0,1,0-3.52,3.5A3.42,3.42,0,0,0,819.77,115.34Z"/><path class="cls-2" d="M841,115.32c0,3.5-2.37,5.82-6.1,5.82h-5.08V109.55h5.08C838.67,109.55,841,111.86,841,115.32Zm-2.85,0a3.21,3.21,0,0,0-3.35-3.51h-2.2v7h2.2A3.21,3.21,0,0,0,838.19,115.34Z"/><path class="cls-2" d="M843,115.34a6.36,6.36,0,1,1,6.35,6A6,6,0,0,1,843,115.34Zm9.87,0a3.52,3.52,0,1,0-3.52,3.5A3.41,3.41,0,0,0,852.85,115.34Z"/><path class="cls-2" d="M865.1,115.34a3.39,3.39,0,0,0,3.44,3.5,3.81,3.81,0,0,0,3-1.37h.19l1.71,1.42v.2a6.16,6.16,0,0,1-4.88,2.26,6,6,0,1,1,0-12,6.16,6.16,0,0,1,4.85,2.27v.19l-1.71,1.43h-.19a3.81,3.81,0,0,0-3-1.37A3.39,3.39,0,0,0,865.1,115.34Z"/><path class="cls-2" d="M878.6,111.83v2.41h4.34v2.17H878.6v2.45h5.66v2.28h-8.44V109.55h8.44v2.28Z"/><path class="cls-2" d="M898.7,120.78l-.11.2a3,3,0,0,1-1.51.37,2.43,2.43,0,0,1-1.55-.48,4.78,4.78,0,0,1-1.22-1.76h-4.83l-.8,2h-2.93l5-11.59h2.41l3.71,8.31c.36.8.59,1,.91,1a.81.81,0,0,0,.39-.12l.16.09Zm-8.45-3.6h3.3L891.9,113Z"/><path class="cls-2" d="M911,120.73l-.09.2a2.83,2.83,0,0,1-1.57.42c-1.69,0-2.37-1-3.12-2.46-.37-.73-1-2.1-1.75-2.1h-.91v4.35h-2.78V109.55h5c2.94,0,4.49,1.4,4.49,3.69a3.29,3.29,0,0,1-2.4,3.24,4,4,0,0,1,.67,1c.34.73.66,1.39,1.27,1.39a1.19,1.19,0,0,0,.46-.12l.18.09Zm-5.15-5.85a1.48,1.48,0,0,0,1.64-1.5,1.51,1.51,0,0,0-1.64-1.55h-2.29v3Z"/><path class="cls-2" d="M925.1,120.78l-.11.2a3,3,0,0,1-1.52.37,2.45,2.45,0,0,1-1.55-.48,4.77,4.77,0,0,1-1.21-1.76h-4.84l-.8,2h-2.92l5-11.59h2.4l3.71,8.31c.36.8.59,1,.91,1a.9.9,0,0,0,.4-.12l.16.09Zm-8-12.27-.61-1v-.2l3.82-2.39h.19l1,1.68v.19l-4.25,1.75Zm-.47,8.67h3.3L918.3,113Z"/><path class="cls-2" d="M586.51,59.77c.63-5.56,4.57-9.38,9.12-12.28l.8-.51-15.19-19.3-.32-.06c-1.82-.35-3.64-.66-5.46-.95-5.54-.75-9.47-1.25-12.9-1.59l-2.82-.22h-.09l-.85-.06h-.23l-.22,0c-2.1-.13-4.2-.24-6.29-.31h0l-.76,0h0l-.62,0c-7.69-.16-14.48.1-19.31.39h0c-1.68.11-12.51,1.19-14.52,1.43l-.33,0c-2.46.34-7.51,1.12-9.36,1.41L492,47l.8.51c4.55,2.9,8.49,6.72,9.11,12.28s-2.33,11.8-4.39,16.76c-2.76,6.66-5.34,13.24-5.34,20.56a15.75,15.75,0,0,0,.7,4.63c1.51,4.87,5.27,8.79,9.23,11.9A100.6,100.6,0,0,0,517.21,123c5.39,2.86,11,5.56,16.19,8.74,3.47,2.11,8.09,5.24,10,8.89l.78,1.49.78-1.49c1.91-3.65,6.54-6.78,10-8.89,5.21-3.18,10.79-5.88,16.19-8.74a100.6,100.6,0,0,0,15.15-9.37c4-3.11,7.72-7,9.23-11.9a15.75,15.75,0,0,0,.7-4.63c0-7.32-2.58-13.9-5.34-20.56C588.84,71.57,585.9,65.22,586.51,59.77Z"/><polygon class="cls-3" points="562.79 5.68 565.85 6.15 565.88 4.29 562.79 5.68"/><polygon class="cls-3" points="535.38 3.21 535.35 5.01 537.14 4.89 535.38 3.21"/><polygon class="cls-3" points="551.21 4.87 552.99 4.98 552.96 3.19 551.21 4.87"/><g class="cls-4"><rect class="cls-5" x="512.68" width="63.66" height="12.43"/></g><g class="cls-6"><rect class="cls-7" x="515.44" y="8.06" width="57.24" height="5.22"/></g><g class="cls-8"><rect class="cls-9" x="514.26" y="10.89" width="60.24" height="16.82"/></g><path class="cls-3" d="M548.19,24.79l-8.84.11a32.19,32.19,0,0,1,.56-5,6,6,0,0,1,2.2-3.17,3.73,3.73,0,0,1,3.2-.49,4.37,4.37,0,0,1,2.47,2.13A9.92,9.92,0,0,1,548.94,22a10.79,10.79,0,0,1,0,2.84Z"/><path class="cls-3" d="M557.37,13.87c-1.41.09-2.68,1-2.58,2.12s.78,6.49.78,6.49l5.68.41-1-7.33S558.78,13.79,557.37,13.87Z"/><g class="cls-11"><g class="cls-12"><rect class="cls-13" x="493.83" y="27.15" width="101.57" height="110.81"/></g></g><path class="cls-1" d="M509.73,32.26,498.9,45.8c4.12,3.42,7.18,7.72,7.81,13.32.75,6.65-2.19,13.33-4.7,19.36s-5,12.13-5,18.68a10.48,10.48,0,0,0,.48,3.13c2.47,8,15,14.59,21.92,18.29,5.52,2.92,11.21,5.68,16.54,8.93a46.55,46.55,0,0,1,8,5.94,46.23,46.23,0,0,1,8.05-5.94c5.33-3.25,11-6,16.53-8.93,7.45-4,22.4-11.63,22.4-21.42,0-6.55-2.49-12.71-5-18.68s-5.44-12.71-4.69-19.36c.63-5.6,3.76-9.75,7.88-13.17L578.29,32.22a185.61,185.61,0,0,0-33.13-2.9,222.08,222.08,0,0,0-35.43,2.94"/><polygon class="cls-14" points="511.72 50.48 510.83 53.34 507.93 53.33 510.28 55.09 509.38 57.95 511.72 56.18 514.06 57.95 513.16 55.09 515.51 53.33 512.61 53.34 511.72 50.48"/><polygon class="cls-15" points="511.72 50.48 510.83 53.34 507.93 53.33 510.28 55.09 509.38 57.95 511.72 56.18 514.06 57.95 513.16 55.09 515.51 53.33 512.61 53.34 511.72 50.48"/><polygon class="cls-14" points="509.28 69.91 508.39 72.76 505.5 72.76 507.84 74.52 506.94 77.37 509.28 75.6 511.62 77.37 510.72 74.52 513.07 72.76 510.17 72.76 509.28 69.91"/><polygon class="cls-15" points="509.28 69.91 508.39 72.76 505.5 72.76 507.84 74.52 506.94 77.37 509.28 75.6 511.62 77.37 510.72 74.52 513.07 72.76 510.17 72.76 509.28 69.91"/><polygon class="cls-14" points="506.13 87.31 505.24 90.17 502.34 90.16 504.69 91.92 503.79 94.78 506.13 93.01 508.47 94.78 507.57 91.92 509.91 90.16 507.02 90.17 506.13 87.31"/><polygon class="cls-15" points="506.13 87.31 505.24 90.17 502.34 90.16 504.69 91.92 503.79 94.78 506.13 93.01 508.47 94.78 507.57 91.92 509.91 90.16 507.02 90.17 506.13 87.31"/><polygon class="cls-14" points="543.83 117.59 542.94 120.45 540.04 120.45 542.39 122.21 541.49 125.06 543.83 123.29 546.17 125.06 545.27 122.21 547.62 120.45 544.72 120.45 543.83 117.59"/><polygon class="cls-15" points="543.83 117.59 542.94 120.45 540.04 120.45 542.39 122.21 541.49 125.06 543.83 123.29 546.17 125.06 545.27 122.21 547.62 120.45 544.72 120.45 543.83 117.59"/><polygon class="cls-14" points="561.3 110.53 560.41 113.39 557.51 113.39 559.86 115.15 558.96 118 561.3 116.23 563.64 118 562.74 115.15 565.09 113.39 562.19 113.39 561.3 110.53"/><polygon class="cls-15" points="561.3 110.53 560.41 113.39 557.51 113.39 559.86 115.15 558.96 118 561.3 116.23 563.64 118 562.74 115.15 565.09 113.39 562.19 113.39 561.3 110.53"/><polygon class="cls-14" points="526.2 110.53 527.09 113.39 529.98 113.39 527.64 115.15 528.54 118 526.2 116.23 523.86 118 524.76 115.15 522.41 113.39 525.3 113.39 526.2 110.53"/><polygon class="cls-15" points="526.2 110.53 527.09 113.39 529.98 113.39 527.64 115.15 528.54 118 526.2 116.23 523.86 118 524.76 115.15 522.41 113.39 525.3 113.39 526.2 110.53"/><polygon class="cls-14" points="512.31 101.25 513.2 104.11 516.09 104.11 513.75 105.87 514.65 108.72 512.31 106.95 509.97 108.72 510.87 105.87 508.52 104.11 511.42 104.11 512.31 101.25"/><polygon class="cls-15" points="512.31 101.25 513.2 104.11 516.09 104.11 513.75 105.87 514.65 108.72 512.31 106.95 509.97 108.72 510.87 105.87 508.52 104.11 511.42 104.11 512.31 101.25"/><g class="cls-16"><rect class="cls-17" x="490.81" y="39.08" width="87.53" height="64.59"/></g><path class="cls-18" d="M515.61,75h16v.68h-16v-.16h0c0-.17,0-.34,0-.52"/><path class="cls-19" d="M515.61,75h16v.68h-16v-.16h0C515.6,75.39,515.61,75.22,515.61,75Z"/><path class="cls-18" d="M515.75,71.94l15.91,3.12-.13.66-15.83-3.1c0-.22,0-.45,0-.68"/><path class="cls-19" d="M515.75,71.94l15.91,3.12-.13.66-15.83-3.1C515.71,72.4,515.73,72.17,515.75,71.94Z"/><path class="cls-18" d="M516.1,68.72l15.63,6.37-.26.62L516,69.41c0-.23.06-.46.1-.69"/><path class="cls-19" d="M516.1,68.72l15.63,6.37-.26.62L516,69.41C516,69.18,516.06,69,516.1,68.72Z"/><path class="cls-18" d="M516.73,65.24l15.06,9.89-.38.57L516.57,66c0-.24.1-.48.16-.71"/><path class="cls-19" d="M516.73,65.24l15.06,9.89-.38.57L516.57,66C516.62,65.71,516.67,65.47,516.73,65.24Z"/><path class="cls-18" d="M517.77,61.36l14.08,13.83-.49.48L517.54,62.09c.08-.24.15-.49.23-.73"/><path class="cls-19" d="M517.77,61.36l14.08,13.83-.49.48L517.54,62.09C517.62,61.85,517.69,61.6,517.77,61.36Z"/><path class="cls-18" d="M519.45,57l12.44,18.27-.57.37-12.2-17.9.33-.74"/><path class="cls-19" d="M519.45,57l12.44,18.27-.57.37-12.2-17.9Z"/><path class="cls-18" d="M522.11,52.16l9.81,23.17-.64.26-9.62-22.73c.14-.24.29-.47.45-.7"/><path class="cls-19" d="M522.11,52.16l9.81,23.17-.64.26-9.62-22.73C521.8,52.62,522,52.39,522.11,52.16Z"/><path class="cls-18" d="M526.15,47.25l5.78,28.16-.67.13-5.69-27.7c.19-.2.38-.4.58-.59"/><path class="cls-19" d="M526.15,47.25l5.78,28.16-.67.13-5.69-27.7C525.76,47.64,526,47.44,526.15,47.25Z"/><path class="cls-18" d="M531.8,43.12l.13,32.36h-.69l-.12-32,.68-.38"/><path class="cls-19" d="M531.8,43.12l.13,32.36h-.69l-.12-32Z"/><path class="cls-18" d="M538.79,40.66l-6.88,34.9-.67-.13,6.82-34.62.73-.15"/><path class="cls-19" d="M538.79,40.66l-6.88,34.9-.67-.13,6.82-34.62Z"/><path class="cls-18" d="M546.52,40.29,531.88,75.63l-.64-.26L545.8,40.23l.72.06"/><path class="cls-19" d="M546.52,40.29,531.88,75.63l-.64-.26L545.8,40.23Z"/><path class="cls-18" d="M554.27,42.19l-22.44,33.5-.57-.37,22.37-33.4.64.27"/><path class="cls-19" d="M554.27,42.19l-22.44,33.5-.57-.37,22.37-33.4Z"/><path class="cls-18" d="M561.07,46.52,531.78,75.75l-.49-.48,29.26-29.2.52.45"/><path class="cls-19" d="M561.07,46.52,531.78,75.75l-.49-.48,29.26-29.2Z"/><path class="cls-18" d="M566.26,52.71,531.71,75.79l-.39-.56,34.57-23.09c.13.18.25.38.37.57"/><path class="cls-19" d="M566.26,52.71,531.71,75.79l-.39-.56,34.57-23.09C566,52.32,566.14,52.52,566.26,52.71Z"/><path class="cls-18" d="M569.76,59.94,531.63,75.81l-.26-.62L569.53,59.3c.08.21.16.43.23.64"/><path class="cls-19" d="M569.76,59.94,531.63,75.81l-.26-.62L569.53,59.3C569.61,59.51,569.69,59.73,569.76,59.94Z"/><path class="cls-18" d="M571.75,67.64l-40.19,8.19-.14-.67L571.64,67c0,.22.08.44.11.66"/><path class="cls-19" d="M571.75,67.64l-40.19,8.19-.14-.67L571.64,67C571.68,67.2,571.72,67.42,571.75,67.64Z"/><path class="cls-18" d="M572.41,75.51l-40.93.31v-.67l40.94-.31v.67"/><path class="cls-19" d="M572.41,75.51l-40.93.31v-.67l40.94-.31Z"/><path class="cls-18" d="M531.58,65.19A10.41,10.41,0,0,1,542.07,75.5h-21a10.4,10.4,0,0,1,10.48-10.31"/><path class="cls-20" d="M531.58,66.08a9.42,9.42,0,0,1,9.63,9.19H522a9.42,9.42,0,0,1,9.62-9.19"/><g class="cls-21"><g class="cls-22"><rect class="cls-23" x="513.38" y="74.03" width="55.51" height="46.21"/></g></g><g class="cls-24"><g class="cls-25"><rect class="cls-26" x="514.67" y="74.96" width="37.36" height="36.22"/></g><path class="cls-1" d="M543.38,111.28h0a25.86,25.86,0,0,1-21.15-11.49c-4.52-6.44-7-15-7-24.22a.36.36,0,0,1,.36-.36h27.34a.36.36,0,0,1,.36.3.36.36,0,0,1-.25.39c-3.49,1.07-5.58,2.53-6.39,4.45-1.33,3.18,1,7.47,3.44,12,3.18,5.88,6.79,12.55,3.6,18.73A.35.35,0,0,1,543.38,111.28ZM516,75.92c.09,16.33,8.6,34,27.19,34.65,2.83-5.8-.64-12.22-3.7-17.88-2.54-4.69-4.93-9.12-3.47-12.61.73-1.73,2.33-3.1,4.9-4.16H516Z"/></g><g class="cls-28"><rect class="cls-29" x="543" y="58.08" width="30.47" height="17.36"/></g><path class="cls-14" d="M527.34,95.8c-3.77-7.67-1.84-12.43,3.41-15.35-2.39,4.22,1.09,7.78,6.14,11.72a25.22,25.22,0,0,0-9.42,3.56Z"/><g class="cls-30"><g class="cls-31"><rect class="cls-32" x="539.18" y="74.96" width="33.84" height="29.28"/></g></g><g class="cls-33"><rect class="cls-34" x="556.87" y="67.81" width="18.89" height="7.78"/></g><rect class="cls-35" x="529.54" y="56.42" width="3.81" height="1.99"/><rect class="cls-36" x="529.54" y="56.42" width="3.81" height="1.99"/><path class="cls-14" d="M545.26,52.1a19.91,19.91,0,0,1,7.26.87c1.8.65,2.5.62,4.16,2.18l-2.53,1.58c-2.53-2.81-5.7-3.3-9-4.24-1.37-.4-1.31-.36.08-.39"/><path class="cls-14" d="M555.56,55.13c2,.14,4.37-1.39,5.34-1.58.33-.06.94.53.65.81a16.18,16.18,0,0,1-1.6.75,12.08,12.08,0,0,1,1.79-.78c.49.08.8.88.58,1.05a21.29,21.29,0,0,0-2.05.64,9.65,9.65,0,0,1,2.05-.64c.26,0,.56.81.19,1-1.11.71-2.58.74-3.75,1.26.45,1.76,1.6,3.77,1.54,5.59-.09,2.83-1.65,5.49-2.13,8.15-.19,1-.06,1.3-.27.1-.62-3.47-.86-9.62-2.48-11.89a9.12,9.12,0,0,0-2-1.07,8.11,8.11,0,0,0-1.9-.24c-.45.12-1.52.35-2,.48.14-.83.79-3.16,2.36-3Z"/><path class="cls-42" d="M556.31,85.4l-.06.91,1.22.89,0-1-1.09-.81Zm-.55,16.19,0,.91.1.07h1.25Zm.06-1.81,0,.93,2.13,1.58,0-1Zm.06-1.8,0,.94,2,1.49,0-1Zm.06-1.81,0,.93,1.92,1.45v-1Zm.07-1.81,0,1,1.81,1.32,0-1Zm.06-1.81-.05,1,1.68,1.26,0-1Zm.06-1.8-.06,1,1.57,1.14,0-1Zm.06-1.81-.06,1L557.58,91l0-1Zm.06-1.81-.06,1,1.35,1,0-1Z"/><path class="cls-43" d="M555.66,101.7l0,.9.1.08H557Zm.06-1.81,0,.9,2.13,1.59,0-.94Zm.06-1.81,0,.9,2,1.51,0-.95Z"/><polygon class="cls-44" points="535.8 75.04 527.39 75.04 527.39 62.42 535.78 62.42 535.8 75.04"/><path class="cls-45" d="M533.2,62.22l-3.58,0,.11-1.83-.19-.23,0-5.17a5.68,5.68,0,0,0,.81-.84c.39-.49.66-1.13,1.17-1.13.74,0,.53.59.86,1.07a13.33,13.33,0,0,0,1.24,1.4l.08,2.94.09,1.79-.75.16Z"/><rect class="cls-35" x="529.77" y="56.52" width="3.42" height="1.59"/><path class="cls-3" d="M530.51,13.85c1.41.08,2.68,1,2.58,2.11s-.77,6.49-.77,6.49l-5.68.41,1-7.33S529.1,13.76,530.51,13.85Z"/><path class="cls-46" d="M529.07,16.21c-.18,1.95-.44,3.29-.62,5.24,1-.09,1.71-.09,2.49-.16.24-1.92.44-3.35.68-5.27C531.12,14.9,529.84,15.05,529.07,16.21Z"/><path class="cls-46" d="M559.43,21.45c-.18-1.95-.43-3.29-.61-5.24-.77-1.16-2.06-1.31-2.55-.19.24,1.92.43,3.35.68,5.27C557.72,21.36,558.43,21.36,559.43,21.45Z"/><path class="cls-46" d="M547.73,24.62l-.05-.71h0c-.21-2.5-.4-6.48-3.53-6.48s-3.22,4.12-3.41,6.57h0l0,.6Z"/><path class="cls-46" d="M544.18,16.45c4.06,0,4.17,4.87,4.49,7.9,0,0,0,.16,0,.16l0,.09h.79l0-.23h0c-.07-.82-.15-1.71-.27-2.6l1.87,0,.25,2.6h0l.06.19H552l0-.17h0l-.25-2.6,3.36.13.13,1,1.5.15c.84.08,1.68.09,2.51.16l2.24.18-.1-1.14c1.44.1,2.88.23,4.32.37l.7,2.74.09.42.73,0-.11-.69-.62-2.41,5.27.63L572.93,26h0l.11.24h0l.08.21.9.12v-.18h0l-5.73-13.06,2,.32,2.12-1.8L574,8.65a17.75,17.75,0,0,0,.1-3.77c-1.18-.23-7.72-1.55-8.23-1.48l-4.65,2.08V2.8l-8.23-.66v0l-2.83,2.65-1.82,0V2l-8.23,0V4.79l-1.79.06-2.86-2.68-8.23.66V5.49l-4.64-2.06c-.54-.07-7,1.22-8.23,1.45a18.41,18.41,0,0,0,.09,3.76c1.91,3.91.53,2.48,3.92,5l1.59-.24L514.3,26.55c0,.1,0,.07,0,.07v.18l.85-.12.11-.18h0l1.3-3h0l5.25-.62-.72,2.82,0,.1,0,.55h.69L522,25l.56-2.22c1.3-.13,2.6-.24,3.9-.35l-.1,1,2.24-.18c.84-.07,1.68-.08,2.51-.16l1.5-.15.13-1c1.26-.06,2.53-.11,3.8-.15l-.2,2-.08,1H537l0-.33v-.08h0l.25-2.64,1.93-.05.11-.74-6.51.27c.12-.88.23-1.76.35-2.64l7-.31A18.33,18.33,0,0,0,539,24h0l-.07.71h.75l0-.37h0C540,21.4,540.21,16.45,544.18,16.45Zm10.92-2q-5.24-.3-10.49-.32V11.52c4,0,8,.19,12,.51l.23,1.4-.29.07A2.92,2.92,0,0,0,555.1,14.4Zm-.7,1.85c.06.52.13,1.05.2,1.57l-3.18-.13-.24-2.75c1.15,0,2.3.09,3.45.16l-.09.18-.21.47Zm5,6.12c-.83-.06-1.67-.08-2.49-.16l-.76-.07L556,21.4c-.22-1.76-.46-3.51-.68-5.26l0-.25.1-.24a2.19,2.19,0,0,1,1.41-1.26,2.71,2.71,0,0,1,2.8,1.31l.13.2,0,.23c.16,1.75.45,3.48.61,5.23l.1,1.1Zm1.35-6.32-.05-.47,0,0c1.12.11,2.24.22,3.36.35l.69,2.7c-1.24-.13-2.49-.25-3.73-.35C560.86,17.51,560.77,16.78,560.7,16.05Zm10.74,6.58h-.13c-3.31-.44-6.64-.77-10-1l0-.31c-.07-.77-.17-1.53-.26-2.3,3.09.26,6.17.6,9.24,1Zm-1.5-3.4-.13,0-4.34-.54L564.78,16l4,.52Zm-1.55-3.52-.13,0-8.14-.87a3.8,3.8,0,0,0-2.52-1.41l-.22-1.32q5,.44,9.93,1.14ZM565.85,4.37l0,1.73c-1-.13-2-.26-2.93-.44Zm-12.91-1.1V4.92l-1.67-.07Zm-17.53,0,1.7,1.61-1.7.07ZM522.54,4.43l3,1.33-3,.38Zm-6.28,5.84c-1.34-2.55-1.06-1.62-1.06-4.66,2.15-.42,4.29-.8,6.44-1.14V7.16q3.21-.45,6.44-.79V3.63q3.21-.31,6.44-.52V5.88c2.14-.1,4.29-.18,6.44-.22V2.88c2.14,0,4.28,0,6.43,0V5.64c2.15,0,4.29.1,6.44.2V3.08c2.15.14,4.29.31,6.44.52V6.32c2.15.23,4.29.5,6.44.8V4.44q3.22.52,6.45,1.17c0,3.12.29,2-1.1,4.71A182,182,0,0,0,543.32,8a176.41,176.41,0,0,0-27.05,2.26Zm2.3,2.43-2.15-1.57a169,169,0,0,1,55.47.06l-1.82,1.56-9.41-1.24A159.6,159.6,0,0,0,518.56,12.7Zm2.3.55c3.36-.48,6.73-.87,10.1-1.15l-.22,1.3a3.69,3.69,0,0,0-3,1.5l-7.9.83Zm-1.39,3.27h0l4-.51-.71,2.76-4.56.55Zm7.11,4.76,0,.42q-4.87.38-9.72,1l1.12-2.61h0c2.94-.4,5.89-.72,8.85-1C526.73,19.83,526.64,20.55,526.58,21.28Zm.61-5.23c-.07.77-.17,1.54-.27,2.31-1.1.09-2.2.2-3.29.31l.7-2.76,2.9-.29Zm5.36.09c-.22,1.75-.45,3.5-.68,5.26l-.09.74-.75.07c-.83.08-1.67.1-2.5.16l-1.12.09.1-1.1c.16-1.75.46-3.48.62-5.23l0-.23.13-.2a2.7,2.7,0,0,1,2.8-1.31,2.15,2.15,0,0,1,1.4,1.26l.11.24Zm.27-1.7a2.93,2.93,0,0,0-1.35-.9l.26-1.51c4-.32,8.07-.5,12.13-.51v2.56C540.18,14.11,536.5,14.22,532.82,14.44Zm4.08,3.3c-1.2,0-2.41.1-3.62.17l.21-1.66.06-.5-.2-.47-.06-.13c1.28-.07,2.56-.14,3.85-.19Zm.76,0,.23-2.78c4.18-.14,8.36-.16,12.54,0l.23,2.76-2.83-.06a4.88,4.88,0,0,1,.42.74l6.45.26c.11.89.23,1.77.34,2.65L549,21l.05.32c-.45-2.87-1.53-5.63-4.9-5.63a4,4,0,0,0-3.62,1.92Z"/><rect class="cls-47" x="530.69" y="66.92" width="2" height="1.93"/><path class="cls-47" d="M535.42,96.91a.65.65,0,0,0,0-1.07h-1.63l0-.09v-.89a.38.38,0,0,0-.38-.37h-.9a.38.38,0,0,0-.38.37v1h-3.69a25.68,25.68,0,0,1,8.31-3l1.56-.32-1.25-1c-2.22-1.73-6.2-4.8-6.51-7.8a4.66,4.66,0,0,1,.66-2.77l1.3-2.29L530.22,80c-6.55,3.65-6.62,9.67-3.6,15.84h-1v-.56H524.4v.56H523c-.37.29-.37.64,0,1.07A39.38,39.38,0,0,0,535.42,96.91Zm-4.83-16.27c-2.38,4.21,1,7.58,6,11.51a24.46,24.46,0,0,0-9.26,3.53C523.79,88.49,525.35,83.55,530.59,80.64Z"/><path class="cls-47" d="M552,56.66a.35.35,0,0,0-.37.33.37.37,0,0,0,.32.39.35.35,0,0,0,.36-.33A.35.35,0,0,0,552,56.66Z"/><path class="cls-47" d="M586.51,59.77c.63-5.56,4.57-9.38,9.12-12.28l.8-.51-15.19-19.3-.32-.06c-1.82-.35-3.64-.66-5.46-.95-5.54-.75-9.47-1.25-12.9-1.59l-2.82-.22h-.09l-.85-.06h-.23l-.22,0c-2.1-.13-4.2-.24-6.29-.31h0l-.76,0h0l-.62,0c-7.69-.16-14.48.1-19.31.39h0c-1.68.11-12.51,1.19-14.52,1.43l-.33,0c-2.46.34-7.51,1.12-9.36,1.41L492,47l.8.51c4.55,2.9,8.49,6.72,9.11,12.28s-2.33,11.8-4.39,16.76c-2.76,6.66-5.34,13.24-5.34,20.56a15.75,15.75,0,0,0,.7,4.63c1.51,4.87,5.27,8.79,9.23,11.9A100.6,100.6,0,0,0,517.21,123c5.39,2.86,11,5.56,16.19,8.74,3.47,2.11,8.09,5.24,10,8.89l.78,1.49.78-1.49c1.91-3.65,6.54-6.78,10-8.89,5.21-3.18,10.79-5.88,16.19-8.74a100.6,100.6,0,0,0,15.15-9.37c4-3.11,7.72-7,9.23-11.9a15.75,15.75,0,0,0,.7-4.63c0-7.32-2.58-13.9-5.34-20.56C588.84,71.57,585.9,65.22,586.51,59.77Zm-42.32,80.46c-7.31-14-51.19-22.18-51.19-43.14s22.17-36.35.23-50.33l14.4-18.3q38.73-6.51,73.12,0l14.4,18.3c-21.94,14,.22,29.38.22,50.33S551.5,126.26,544.19,140.23Z"/><polygon class="cls-3" points="522.5 6.18 525.7 5.77 522.5 4.38 522.5 6.18"/><path class="cls-47" d="M586.82,78.14c-2.42-5.84-5.34-12.42-4.61-18.87.59-5.25,3.44-9.35,7.47-12.69l.64-.54L578.78,31.59l-.32-.06c-22.72-4.1-45.85-3.63-68.59,0l-.34.06L498,46l.65.54c4,3.34,6.88,7.44,7.47,12.69.73,6.45-2.19,13-4.62,18.87-2.52,6.07-5,12.28-5,18.93a11.29,11.29,0,0,0,.52,3.37c2.55,8.24,15,14.86,22.26,18.73,5.5,2.91,11.11,5.64,16.42,8.87a45.78,45.78,0,0,1,7.87,5.8l.61.59.61-.59a45.78,45.78,0,0,1,7.87-5.8c5.31-3.23,10.92-6,16.42-8.87,7.91-4.2,22.77-11.89,22.77-22.1C591.84,90.42,589.34,84.21,586.82,78.14Zm-18.17,40.27c-5.49,2.91-11.16,5.67-16.47,8.9a46.67,46.67,0,0,0-8,5.91,46.35,46.35,0,0,0-8-5.91c-5.3-3.23-11-6-16.46-8.9-7-3.68-19.38-10.28-21.84-18.22a10.36,10.36,0,0,1-.48-3.12c0-6.52,2.49-12.66,5-18.6S507.75,65.8,507,59.18c-.63-5.58-3.67-9.86-7.77-13.26l6.14-7.7,15.09,14.89c-9.57,16.12-7.28,42,7.13,53.24a26.29,26.29,0,0,0,16.57,5.53c10.47,0,18.14-5.14,23-12.68L580,111.82A116.45,116.45,0,0,1,568.65,118.41Zm-21.9-78a2,2,0,0,1,.31,0,25.71,25.71,0,0,1,6,1.33h0l.58.21.09,0h0l.65.27h0l.13.07.19.07.15.07a24.45,24.45,0,0,1,5.21,3.2l.05,0c.25.2.63.51,1,.88h0l.31.29.1.09a28.71,28.71,0,0,1,4.29,5.07h0l0,.05.06.09h0c.13.21.27.42.37.56h0c-.05-.08-.1-.16-.16-.24l.16.24h0l0,0,0,.07h0a36.65,36.65,0,0,1,2.84,5.59H569a6.91,6.91,0,0,0-6.17,3.65c0,.07-.37.65-.59,1a18.73,18.73,0,0,1-1.63,2.55,12.21,12.21,0,0,0,.29-1.39c0-.21.05-.42.07-.64h0c0-.27,0-.76,0-.76,0-1.68-.87-3.2-1.38-4.79A12.23,12.23,0,0,0,562.86,57a1.41,1.41,0,0,0,.23-1.94,3.27,3.27,0,0,0-.12-.5,3.79,3.79,0,0,0-.24-.39,1.78,1.78,0,0,0-.5-.45,1.45,1.45,0,0,0-1.5-.88,6.77,6.77,0,0,0-1.54.61c-.61.28-1.21.56-1.84.78l-.56.17a17,17,0,0,0-2.16-1.31h0c-.24-.12-.51-.24-.93-.42l-.68-.26a17.46,17.46,0,0,0-4.77-1h0c-.53,0-1-.05-1.81-.07h-.86c-.59,0-1.68-.14-1.8.69s1,1,1.53,1.13l.07,0,1.59.44h0a19.58,19.58,0,0,1,4.48,1.62,2.45,2.45,0,0,0-1.79,1.55l-.16.37a8.94,8.94,0,0,0-.4,1.42h0l-.16.92,1.14-.31c.47-.13,1-.19,1.51-.31a6,6,0,0,1,1.54.3h0a11.2,11.2,0,0,1,1.13.47l.09,0a1.81,1.81,0,0,1,.77.49h0l0,.07,0,0v0a14.19,14.19,0,0,1,1.12,4.38h0l0,.09v0h0l.08.7h0c0,.27.07.53.09.76l0,.37-1.14-.31-.3-.08h0l-.07,0-1.53-.38-.77-.15A4.81,4.81,0,0,0,549.43,67a10.7,10.7,0,0,0-.83.68,21.6,21.6,0,0,0-1.89,1.93h0c-.1.12-.19.24-.29.35-.47.58-.88,1.12-1.33,1.74-.19.27-.37.55-.55.83h0c-.23.37-.42.71-.56,1a13.5,13.5,0,0,0-.65,1.33h-6.88V62.07h-2.68l-.1-1.5h.8V57.75h-.69v-.9h.55v-.92a2.11,2.11,0,0,0-1.4-1.9l0-.27a1.3,1.3,0,0,0-.91-1.24,1.49,1.49,0,0,0-.36-.05h-.32a1.31,1.31,0,0,0-1.06,1.28l0,.29A2.07,2.07,0,0,0,529,55.93v.92h.54v.9h-.68v2.82h.85l-.1,1.5H526.9V74.83h-11c0-.18,0-.35,0-.52a4.1,4.1,0,0,1,0-.66c0-.69.07-.87.14-1.71h0c0-.13,0-.26,0-.39s0-.2,0-.31a29.56,29.56,0,0,1,.41-3.29c0-.22.07-.44.11-.64h0c.18-1,.35-1.82.52-2.56.09-.39.17-.7.25-1l0-.1c.1-.38.21-.76.35-1.3s.35-1.14.55-1.71c.14-.4.28-.81.43-1.21l0-.11a19.6,19.6,0,0,1,1-2.48l.09-.18a37.08,37.08,0,0,1,2-3.63v0a20.9,20.9,0,0,1,1.87-2.66l.33-.43.09-.12a19.36,19.36,0,0,1,2.36-2.56l.07-.06a25.73,25.73,0,0,1,3.77-3l.09-.06a13.46,13.46,0,0,1,1.56-.91l.41-.21A24.41,24.41,0,0,1,537,41.26l.09,0a16.77,16.77,0,0,1,2-.46h0a27.55,27.55,0,0,1,5.15-.47h.33l1.09,0,.37,0h0ZM515.86,75.56h27a20.61,20.61,0,0,0-2.46.93l-.21.1-.63.33c-.24.13-.47.27-.68.41h0a5.74,5.74,0,0,0-3,5,9.56,9.56,0,0,0,.41,2.72h0l.09.3,0,0c.1.33.22.68.36,1,.43,1.14,1,2.23,1.5,3.32.4.78.82,1.55,1.23,2.33,1.81,3.38,3.81,6.92,4.62,10.7a12.24,12.24,0,0,1-.29,6.73v0c-.09.24-.18.48-.29.72s-.17.36-.26.54h0c-.7,0-1.4-.07-2.1-.14a24.85,24.85,0,0,1-10.64-3.59c-10.43-6.5-15-19.81-14.68-31.46v0Zm14.08-11.64V62.79h1.15v1.13h1.15V62.79h1.16v1.13h1.15V62.79h1.15v2.47h-8.06V62.79h1.15v1.13Zm1.7-9.43h0c1.07,0,1.94.65,1.94,1.44v.19H529.7v-.19C529.7,55.14,530.58,54.49,531.64,54.49Zm-.61-.73a.58.58,0,0,1,.59-.58.59.59,0,0,1,.59.58v.06a2.65,2.65,0,0,0-.56,0,3.05,3.05,0,0,0-.6.06Zm2,3.09v.9h-1v-.9Zm-1.75,0v.9h-1v-.9Zm2.47,1.63v1.36h-4.16V58.48ZM533,62.07h-2.68l.09-1.5h2.5Zm2.69,4v3.48h-8.06V66Zm0,4.24v4.49h-3V72.31a1.1,1.1,0,1,0-2.16,0v2.45h-2.91V70.27Zm8.44,40.54c2.45-5.16.58-10.36-1.91-15.3-1.44-2.84-3.09-5.59-4.24-8.19-.75-1.7-1.55-3.89-1.24-5.81A4.94,4.94,0,0,1,539,78.12a16.24,16.24,0,0,1,3.08-1.5h0l.11-.05.44-.15c-2.9,5.46-1.81,10.68,2.69,15.38,2.57,2.68,6.22,4.11,10,5.36l-.2,6h3.42v-.6c0-1.47-.07-3-.12-4.42a43.38,43.38,0,0,1,6.4,2.47,25.1,25.1,0,0,1-20.65,10.21h0ZM558.31,87l1.12,1.14.42-.41-1.25-1.28a7,7,0,0,1,2.35,2l0,.17,0,.2-.26,2.59L559.42,90l-.14-.1-.06-.21A14.34,14.34,0,0,0,558.31,87Zm.41,3.16-.54,1.24c0-1.15-.07-2.29-.1-3.44.24.65.41,1.33.61,2.09l0,0Zm.67-3.94,1.19.39.18-.56-1.43-.47a7.45,7.45,0,0,1,1.95.34l.13.06.08.13,1.41,2.48-1.28-.26h0l0,0A7.88,7.88,0,0,0,559.39,86.2Zm2.28-.85-.09,0-.07,0a8,8,0,0,0-2.27-.39l1.62-.27-.1-.58-1.9.32a12.24,12.24,0,0,1,1.68-.82l.16-.08.22,0,2.76.44ZM561.26,80l-.7.28.78-.57Zm-.19.71-.59,2.21V83l-.09,0a11,11,0,0,0-2.54,1.36l1.87-2.12-.45-.39-1.65,1.87a8.69,8.69,0,0,1,1-2l.09-.12.13,0Zm-5.28,20,0-.89,2.07,1.53,0,.94Zm1.28,1.88h-1.24l-.1-.08,0-.89Zm.41-14.47,0,.94-1.29-1,0-.9Zm-1.2-1.82,0-.82,0,0,1.09.81,0,.94ZM557.54,90l0,.94-1.41-1,0-.9Zm.06,1.89,0,1-1.53-1.14,0-.9Zm.06,1.89,0,1L556,93.49l0-.9Zm.06,1.9,0,.94L556,95.29l0-.9Zm.07,1.89,0,1-1.9-1.42,0-.9Zm.05,1.89,0,.94-2-1.5,0-.9Zm.23-18a9.27,9.27,0,0,0-.91,1.77V81.13h-.6v2.61a9.36,9.36,0,0,0-1.12-2.32l0-.16,1.32-2.52,1.36,2.61v.08Zm-2.15,2.19L554.29,82l-.43.41L556,84.63h0a10,10,0,0,0-2.81-1.58l-.1-.14-.61-2.28,2.22.9.14.07.08.11A8.42,8.42,0,0,1,555.92,83.69Zm-3.64-3.77-.07-.27.73.54Zm.36,3.65.16,0,.15,0,1.69.81L553,84.12l-.1.58,1.62.27a8.35,8.35,0,0,0-2.23.39h-.08l-.09,0L550,84Zm-.38,2.52.09-.12.12-.06a7.92,7.92,0,0,1,2-.35l-1.49.5.19.56,1.21-.41a8.45,8.45,0,0,0-2.13,2l-.06.06,0,.07-1.29.26Zm.54,2.34a7.62,7.62,0,0,1,2.12-1.86l-1.1,1.09.42.42,1.38-1.37a11.61,11.61,0,0,0-1.15,3.07h0l-.05.12-.09.11L553,91.36l-.25-2.59v-.19Zm2.28,1.4a12.88,12.88,0,0,1,.54-1.75l-.11,3.17L555,90.14V90Zm3.3,7.54c0-1.54-.1-3.07-.16-4.61l.53-1.21,0,1.69h.6l0-1.61.58,1.52.56-.21-.62-1.61,1.16,1.2.43-.41-.2-.2.17-1.74.46,1.69.58-.15L562,90.08l1,1.39.49-.34-1.09-1.54,1.5,1,.33-.5-1.41-.9.47.1.17.3.35-.19.64.13.12-.58-.17,0,.36-.34-1.45-1.49,1.77,1,.31-.51-1.95-1.12,2.18.48.13-.57L564,86l1.84-.06,0-.59-2,.07,2-.64-.19-.56-2,.63,1-.66h0l.73-.49-.33-.49-.55.36L563,83.3l1.89-.21-.06-.59-2.15.24,1.94-.83-.24-.54-2,.83L564,80.83l-.4-.44L562,81.75l1.14-1.81-.51-.31,0,0-.08-.19-.57.23.08-.31-.21-.05.39-.29-.36-.47L560,80l1.38-1.78-.47-.35-1.51,1.93.83-2.26-.57-.2-.69,1.9.18-2-.59-.06-.2,2.23-.45-2.21-.58.11.44,2.2-.71-1.35.27-.5-.54-.27-.06.13,0,0-.53.27.21.41-.65,1.26.43-2.19-.58-.11-.44,2.21L555,77l-.6,0,.18,2-.69-1.91-.57.2.83,2.27-1.5-1.94-.48.36,1.38,1.77-1.86-1.36-.36.48.49.35-.25.07.07.24-.62-.25-.11.28-.44.27,1.15,1.81L550,80.39l-.4.44,1.61,1.37-1.95-.83-.24.54,1.94.83-2.15-.24-.06.59,1.89.21-1.3.2-.51-.34-.33.49L549,84l0,.14.16,0,1,.68-2-.63-.19.56,2,.64-2-.07,0,.59,1.83.06-1.79.4.13.57,2.18-.48-1.95,1.12.3.51,1.78-1L549,88.54l.36.34-.17,0,.12.58.64-.13.34.19.18-.3.47-.1-1.41.9.33.5,1.5-1-1.09,1.54.49.34,1-1.39-.45,1.65.58.15.45-1.69.18,1.74-.2.2.43.41,1.16-1.2L553.26,93l.56.21.58-1.52,0,1.61h.6l0-1.69.47,1.08-.13,3.77c-3.64-1.21-7.09-2.59-9.5-5.11-5.51-5.76-4.59-11-2.29-15h0v0h0v0h0v0h0l.1-.17h0l.1-.17h0l.09-.15h0l1.35,0,27.11.31h0c0,8.81-2.44,17.57-7.2,24.13A43.19,43.19,0,0,0,558.38,97.37Zm4.67-9.74,1.18,1.21-.55-.11Zm-1.55-6.21.27-1,.48-.19Zm-9.44,0-.8-1.27.52.21Zm-1.36,6.21-.63,1.1-.55.11ZM572.44,75H557.38c5.06-3.14,6.57-7.44,9.32-7.12,1.57.18,3.8.73,5.25.92h0a48.25,48.25,0,0,1,.48,6.14Zm-.94-7c-.73-.12-1.45-.26-2.18-.4s-1.68-.33-2.53-.43a3.1,3.1,0,0,0-1,0C564.3,67.43,563,68.93,562,70a24.59,24.59,0,0,1-5,4.32L555.8,75l-11.67-.13c1.52-3.38,6.09-8.73,8.5-8.35,1.18.19,2.75.67,4,1,.14,1.37.27,2.75.51,4.09.09.49.05,1.45.88,1.42s.73-1,.81-1.48a31,31,0,0,1,1.34-4.37c3-1.94,3.07-7.84,8.81-7.9a3,3,0,0,1,.52,0h0A43.73,43.73,0,0,1,571.84,68ZM552.05,56l3.43-.71c2,.14,4.43-1.53,5.39-1.71a.75.75,0,0,1,.66.41l-2,1,.25.53,2.2-1a1,1,0,0,1,.37.8l-2.36.57.13.57,2.5-.58a.54.54,0,0,1-.15.61c-1.1.71-2.57.74-3.73,1.25.44,1.76,1.59,3.76,1.54,5.57,0,.19,0,.38,0,.57l-1.29-2.68-.54.26,1.68,3.42c-.13.63-.31,1.25-.5,1.88l-1.32-4.45-.57.16,1.56,5.25a25.61,25.61,0,0,0-1.11,3.71c-.19,1,0,1.27-.22.07-.62-3.45-.66-9.55-2.28-11.82a10.49,10.49,0,0,0-2.21-1,6.63,6.63,0,0,0-1.88-.36c-.45.12-1.28.29-1.73.41C550,57.79,550.49,55.83,552.05,56Zm-6.53-3.5c-1.37-.4-1.31-.36.07-.39a20,20,0,0,1,7.17,1,13.76,13.76,0,0,1,2.93,1.45h-.26l-2.8.58C550.48,53.69,548,53.24,545.52,52.52ZM581,111.12l-13.14-13c9.7-16.2,7.25-42.36-7.41-53.58a26.19,26.19,0,0,0-16.27-5.35c-10.46,0-18.16,5.21-23.06,12.83l-15-14.78L510,32.42c22.66-3.65,45.65-4.13,68.28,0l10.82,13.54c-4.1,3.4-7.15,7.68-7.77,13.26-.75,6.62,2.18,13.29,4.67,19.29s5,12.08,5,18.6C591,102.5,586.35,107.28,581,111.12Z"/><path class="cls-2" d="M865.62,53.29l.42-.7-6.2-11.32c3.34-1.55,5.59-4.31,5.59-8.3,0-6.25-4.32-10.19-12.35-10.19h-14V53.29h9.29V42.59h2.21l5.77,10.7Zm-12.91-16.8h-4.32v-6.2h4.32A3.07,3.07,0,0,1,856,33.48,3,3,0,0,1,852.71,36.49Z"/><rect class="cls-2" x="872.23" y="22.78" width="9.29" height="30.51"/><path class="cls-2" d="M908.61,48.69l1.78,4.6h9.48l.42-.7-14-29.81h-5.92l-14,29.81.42.7h9.06l1.88-4.6ZM903.3,34.8l3,7.79h-6.15Z"/><path class="cls-2" d="M965.44,38c0-9.11-6.15-15.21-16.14-15.21H935.07V53.29H949.3C959.29,53.29,965.44,47.19,965.44,38Zm-16.52,7.79h-4.55V30.29h4.55c4.08,0,7,2.77,7,7.75S953,45.78,948.92,45.78Z"/><path class="cls-2" d="M987.27,53.85c9.71,0,17-6.8,17-15.81s-7.32-15.82-17-15.82-17,6.76-17,15.82S977.55,53.85,987.27,53.85Zm0-23.28A7.47,7.47,0,1,1,979.71,38,7.36,7.36,0,0,1,987.27,30.57Z"/><path class="cls-2" d="M1023.36,34.05c-2.07-.61-4.18-1.32-4.18-2.82,0-1.08,1.17-1.74,3-1.74a10.79,10.79,0,0,1,6.94,3.1h.66l4.36-5.16v-.66c-2.3-2.58-7-4.55-12.15-4.55-7.23,0-12.25,3.85-12.25,9.43,0,6,5.54,8.64,10.23,10,3.05.85,5.12,1,5.12,2.63,0,1.17-1.46,1.88-3.71,1.88a13.23,13.23,0,0,1-8-3.48h-.66L1008.34,48v.65c2.76,3,7.74,5.21,13.51,5.21,6.81,0,12.72-3.28,12.72-9.62C1034.57,37.33,1028.61,35.55,1023.36,34.05Z"/><path class="cls-2" d="M831.07,65.4c-9.71,0-17,6.75-17,15.81S821.36,97,831.07,97s17-6.81,17-15.82S840.79,65.4,831.07,65.4Zm0,23.28a7.47,7.47,0,1,1,7.56-7.47A7.36,7.36,0,0,1,831.07,88.68Z"/><path class="cls-2" d="M867.17,77.22c-2.07-.61-4.18-1.31-4.18-2.81,0-1.08,1.17-1.74,3-1.74a10.79,10.79,0,0,1,6.95,3.1h.66l4.36-5.16V70c-2.3-2.58-7-4.55-12.15-4.55-7.23,0-12.25,3.85-12.25,9.43,0,6,5.54,8.64,10.23,10,3,.85,5.11,1,5.11,2.63,0,1.17-1.45,1.88-3.7,1.88a13.23,13.23,0,0,1-8-3.48h-.66l-4.31,5.35v.66c2.76,3.05,7.74,5.21,13.51,5.21,6.81,0,12.72-3.28,12.72-9.62C878.38,80.51,872.42,78.73,867.17,77.22Z"/><polygon class="cls-2" points="915.74 77.51 905.55 77.51 905.55 65.96 896.26 65.96 896.26 96.47 905.55 96.47 905.55 85.02 915.74 85.02 915.74 96.47 925.03 96.47 925.03 65.96 915.74 65.96 915.74 77.51"/><path class="cls-2" d="M964.5,66H950.28V96.47H964.5c10,0,16.15-6.1,16.15-15.3S974.5,66,964.5,66Zm-.37,23h-4.56V73.47h4.56c4.08,0,7,2.77,7,7.74S968.21,89,964.13,89Z"/><path class="cls-2" d="M1013.41,76.14c0-6.24-4.32-10.18-12.35-10.18h-14V96.47h9.29V85.77h2.21l5.77,10.7h9.25l.42-.71-6.2-11.31C1011.15,82.9,1013.41,80.13,1013.41,76.14Zm-12.72,3.52h-4.32V73.47h4.32a3.07,3.07,0,0,1,3.24,3.19A2.94,2.94,0,0,1,1000.69,79.66Z"/><rect class="cls-2" x="1020.21" y="65.96" width="9.29" height="30.51"/><path class="cls-2" d="M1052.83,65.4c-9.67,0-17,6.75-17,15.81S1043.21,97,1052.69,97a16.57,16.57,0,0,0,13-5.87v-.65l-5.63-4.79h-.66a9.11,9.11,0,0,1-6.62,3,7.47,7.47,0,0,1,0-14.93,9.11,9.11,0,0,1,6.62,3h.66l5.63-4.79v-.66A16.65,16.65,0,0,0,1052.83,65.4Z"/><path class="cls-2" d="M1086.15,65.4c-9.71,0-17,6.75-17,15.81s7.33,15.82,17,15.82,17-6.81,17-15.82S1095.87,65.4,1086.15,65.4Zm0,23.28a7.47,7.47,0,1,1,7.56-7.47A7.36,7.36,0,0,1,1086.15,88.68Z"/><path class="cls-2" d="M1122.24,77.22c-2.06-.61-4.17-1.31-4.17-2.81,0-1.08,1.17-1.74,3-1.74a10.82,10.82,0,0,1,7,3.1h.66l4.36-5.16V70c-2.3-2.58-7-4.55-12.15-4.55-7.23,0-12.25,3.85-12.25,9.43,0,6,5.53,8.64,10.23,10,3,.85,5.11,1,5.11,2.63,0,1.17-1.45,1.88-3.7,1.88a13.23,13.23,0,0,1-8-3.48h-.66l-4.31,5.35v.66C1110,94.87,1115,97,1120.74,97c6.81,0,12.72-3.28,12.72-9.62C1133.46,80.51,1127.5,78.73,1122.24,77.22Z"/><rect class="cls-2" x="932.64" y="65.96" width="9.29" height="30.51"/><polygon class="cls-2" points="942.16 54.78 931.96 61.19 931.96 61.78 933.84 65.03 934.43 65.03 945.66 60.46 945.66 59.86 942.76 54.78 942.16 54.78"/><rect class="cls-2" x="469.74" y="24.41" width="1.62" height="89.74"/><path class="cls-2" d="M24.46,55.35v9.76h20.1v14H24.46v21.85H6.05V40.46H51.44V55.35Z"/><path class="cls-2" d="M76.84,40.46V73.58c0,7.25,4.46,12.09,11.06,12.09S99,80.83,99,73.58V40.46h18.14v32c0,17.77-11.72,29.58-29.21,29.58-17.67,0-29.48-11.81-29.48-29.58v-32Z"/><path class="cls-2" d="M185.21,40.46v60.46h-12.1L146.7,70.6v30.32H128.28V40.46h12.09l26.42,30.33V40.46Z"/><path class="cls-2" d="M194,70.69c0-17.95,14.51-31.34,33.68-31.34A33,33,0,0,1,253.2,51v1.31L242,61.76h-1.3a18.09,18.09,0,0,0-13.12-5.86,14.79,14.79,0,1,0,0,29.58,18.05,18.05,0,0,0,13.12-5.86H242l11.16,9.49v1.3C247.53,97.2,238.69,102,227.44,102,208.65,102,194,88.65,194,70.69Z"/><path class="cls-2" d="M279.07,55.35v8.37h21v14h-21V86H307v14.88H260.65V40.46h46V55.35Z"/><path class="cls-2" d="M371.81,100.92l-3.26-27.06L357,100.92H346.41L334.88,73.67l-3.26,27.25H313.3l9.3-60.46h11.16l17.86,37.77,16.84-37.77h11.16l9.21,60.46Z"/><path class="cls-2" d="M415.81,55.35v8.37h21v14h-21V86h27.9v14.88H397.39V40.46h46V55.35Z"/></svg>